<svg width="60" height="60" viewBox="0 0 60 60" fill="none" xmlns="http://www.w3.org/2000/svg">
<circle cx="30" cy="30" r="30" fill="#5F3E8E"/>
<g clip-path="url(#clip0_829_91)">
<path d="M16.2812 24.4788L42.3024 19.294C42.4443 19.2658 42.5913 19.2778 42.7267 19.3287C42.8621 19.3797 42.9806 19.4675 43.0686 19.5823C43.1567 19.6971 43.2109 19.8343 43.2251 19.9782C43.2392 20.1222 43.2128 20.2673 43.1488 20.3971L31.4047 44.1906C31.3387 44.3237 31.236 44.4351 31.1085 44.5115C30.9811 44.5879 30.8344 44.626 30.6859 44.6214C30.5374 44.6167 30.3934 44.5695 30.271 44.4853C30.1486 44.4011 30.0529 44.2836 29.9954 44.1466L26.4449 35.6468C26.3875 35.5092 26.371 35.358 26.3974 35.2112C26.4238 35.0645 26.4919 34.9285 26.5936 34.8195L33.9729 26.9163C34.0169 26.8693 34.0485 26.812 34.0648 26.7497C34.0811 26.6873 34.0817 26.6219 34.0663 26.5594L34.0319 26.4686C33.9909 26.3914 33.925 26.3303 33.8449 26.2953C33.7648 26.2603 33.6753 26.2534 33.5907 26.2757L33.5068 26.3088L23.9106 31.4196C23.779 31.4893 23.6302 31.5196 23.4819 31.5069C23.3336 31.4943 23.1921 31.4392 23.0743 31.3482L15.9587 25.8536C15.8409 25.7628 15.7517 25.64 15.7018 25.4998C15.6519 25.3597 15.6433 25.2081 15.6772 25.0633C15.7111 24.9184 15.7859 24.7864 15.8928 24.6829C15.9997 24.5794 16.1341 24.5089 16.28 24.4798L16.2812 24.4788Z" fill="white"/>
</g>
<defs>
<clipPath id="clip0_829_91">
<rect width="31" height="31" fill="white" transform="translate(11 24.5244) rotate(-37.5)"/>
</clipPath>
</defs>
</svg>
