<svg width="1292" height="720" viewBox="0 0 1292 720" fill="none" xmlns="http://www.w3.org/2000/svg">
<g clip-path="url(#clip0_389_80)">
<rect width="1292" height="720" fill="#F5F5F5"/>
<path d="M320.119 592.443C287.981 712.025 161.208 781.895 36.9637 748.504C-87.2803 715.112 -161.947 591.103 -129.808 471.522C-97.6698 351.94 29.1033 282.069 153.347 315.461C277.591 348.852 352.258 472.861 320.119 592.443Z" fill="#BF9DDA" fill-opacity="0.53"/>
<path d="M491 327.5C491 422.317 411.139 499.181 312.625 499.181C214.111 499.181 134.249 422.317 134.249 327.5C134.249 232.683 214.111 155.818 312.625 155.818C411.139 155.818 491 232.683 491 327.5Z" fill="#A791CA" fill-opacity="0.29"/>
<path d="M812.326 75.7507C701.88 85.785 626.756 6.76454 603 -34L1306.73 -31.2562V531.608H1228.13C984.756 501.819 1025.72 383.053 1076.63 327.393C1106.36 288.327 1160.12 194.203 1137.31 130.234C1108.8 50.2729 950.384 63.2078 812.326 75.7507Z" fill="#A791CA" fill-opacity="0.63"/>
</g>
<defs>
<clipPath id="clip0_389_80">
<rect width="1292" height="720" fill="white"/>
</clipPath>
</defs>
</svg>
